<mxfile host="app.diagrams.net" modified="2023-03-29T02:21:19.841Z" agent="Mozilla/5.0 (Windows NT 10.0; Win64; x64) AppleWebKit/537.36 (KHTML, like Gecko) Chrome/111.0.0.0 Safari/537.36" version="21.1.0" etag="ABy0k1sNbKNLiZoWDehK" type="github">
  <diagram name="第 1 页" id="XSq0sq7tqHEdfm4O3gW9">
    <mxGraphModel>
      <root>
        <mxCell id="0" />
        <mxCell id="1" parent="0" />
      </root>
    </mxGraphModel>
  </diagram>
</mxfile>
